<svg xmlns="http://www.w3.org/2000/svg" xmlns:svg="http://www.w3.org/2000/svg" id="svg5" width="210mm" height="297mm" version="1.1" viewBox="0 0 210 297"><defs id="defs2"><rect id="rect3520" width="461.529" height="252.707" x="91.218" y="185.277"/><linearGradient id="linearGradient3500"><stop style="stop-color:#213ab1;stop-opacity:1" id="stop3496" offset="0"/><stop style="stop-color:#213ab1;stop-opacity:0" id="stop3498" offset="1"/></linearGradient><rect id="rect3468" width="216.607" height="81.722" x="83.935" y="78.509"/><linearGradient id="linearGradient2900"><stop style="stop-color:#000;stop-opacity:1" id="stop2896" offset="0"/><stop style="stop-color:#000;stop-opacity:0" id="stop2898" offset="1"/></linearGradient><filter style="color-interpolation-filters:sRGB" id="filter3648" width="1.039" height="1.078" x="-.02" y="-.039"><feGaussianBlur id="feGaussianBlur3650" stdDeviation=".01"/></filter><filter style="color-interpolation-filters:sRGB" id="filter3656" width="1.105" height="1.22" x="-.052" y="-.11"><feGaussianBlur id="feGaussianBlur3658" stdDeviation=".91"/></filter><filter style="color-interpolation-filters:sRGB" id="filter3660" width="1.319" height="1.319" x="-.16" y="-.16"><feGaussianBlur id="feGaussianBlur3662" stdDeviation="2.809"/></filter><filter style="color-interpolation-filters:sRGB" id="filter27185" width="1.108" height="1.108" x="-.054" y="-.054"><feGaussianBlur id="feGaussianBlur27187" stdDeviation="2.905"/></filter></defs><g id="layer1"><g id="g3262" style="fill:#00f;fill-opacity:0;fill-rule:evenodd"><path id="path3274" style="fill:#e9e9ff;fill-rule:evenodd;stroke:none;stroke-linejoin:round" d="M 54.439877,29.708682 166.02846,-213.7848 V 95.613264 L 54.439877,131.15871 Z" points="166.028 -213.785 166.028 95.613 54.44 131.159 54.44 29.709"/><path id="path3264" style="fill:#353564;fill-rule:evenodd;stroke:none;stroke-linejoin:round" d="M 39.726081,18.472697 V 129.51847 l 14.713796,1.64024 V 29.708682 Z" points="39.726 129.518 54.44 131.159 54.44 29.709 39.726 18.473"/><path id="path3266" style="fill:#4d4d9f;fill-rule:evenodd;stroke:none;stroke-linejoin:round" d="M 39.726081,18.472697 150.29359,-343.42547 166.02846,-213.7848 54.439877,29.708682 Z" points="150.294 -343.425 166.028 -213.785 54.44 29.709 39.726 18.473"/><path id="path3272" style="fill:#afafde;fill-rule:evenodd;stroke:none;stroke-linejoin:round" d="M 39.726081,129.51847 150.29359,76.688173 166.02846,95.613264 54.439877,131.15871 Z" points="150.294 76.688 166.028 95.613 54.44 131.159 39.726 129.518"/><path id="path3270" style="fill:#d7d7ff;fill-rule:evenodd;stroke:none;stroke-linejoin:round" d="M 150.29359,-343.42547 V 76.688173 l 15.73487,18.925091 V -213.7848 Z" points="150.294 76.688 166.028 95.613 166.028 -213.785 150.294 -343.425"/><path id="path3268" style="fill:#8686bf;fill-rule:evenodd;stroke:none;stroke-linejoin:round" d="M 39.726081,18.472697 150.29359,-343.42547 V 76.688173 L 39.726081,129.51847 Z" points="150.294 -343.425 150.294 76.688 39.726 129.518 39.726 18.473"/></g><g id="g27196" transform="translate(-147.36164,-81.154695)"><rect style="opacity:1;fill:#fff;fill-opacity:1;fill-rule:evenodd;stroke:#00174a;stroke-width:0;stroke-linecap:round;stroke-linejoin:round;stroke-dasharray:none;stroke-dashoffset:0;stroke-opacity:.229798;paint-order:markers fill stroke;filter:url(#filter27185)" id="rect25667" width="129" height="129" x="0" y="0"/><g id="g5847" transform="matrix(0.99603135,0,0,0.99603794,3.591572,3.5914667)"><rect style="fill:#1c518e;fill-opacity:0;fill-rule:evenodd;stroke:#00174a;stroke-width:9.40008;stroke-linecap:round;stroke-linejoin:round;stroke-dasharray:none;stroke-dashoffset:0;stroke-opacity:.229798;paint-order:markers stroke fill;filter:url(#filter3660)" id="rect3358" width="71.725" height="71.725" x="12.5" y="12.5" transform="matrix(1.3264783,0,0,1.3264783,-0.9927174,-0.99271815)"/><text id="text3466" transform="matrix(0.38636836,0,0,0.38636836,-20.359109,-7.3954916)" xml:space="preserve" style="font-style:normal;font-variant:normal;font-weight:700;font-stretch:normal;font-size:74.6667px;line-height:1.15;font-family:'Terminus (TTF)';-inkscape-font-specification:'Terminus (TTF) Bold';letter-spacing:0;word-spacing:0;white-space:pre;shape-inside:url(#rect3468);display:inline;opacity:.461838;fill:#213ab1;fill-opacity:1;stroke:#3d182a;stroke-width:5.91496;stroke-linecap:round;stroke-linejoin:round;stroke-dasharray:none;stroke-dashoffset:0;stroke-opacity:.229798;filter:url(#filter3656)"><tspan id="tspan27294" x="83.936" y="146.307">lib</tspan></text><text id="text3518" transform="matrix(0.29170446,0,0,0.29170446,-0.83403248,-6.7744894)" xml:space="preserve" style="font-style:normal;font-weight:400;font-size:192px;line-height:1.25;font-family:sans-serif;white-space:pre;shape-inside:url(#rect3520);display:inline;mix-blend-mode:normal;fill:#35a1a6;fill-opacity:1;stroke:#5200bd;stroke-width:10.8283;stroke-linecap:round;stroke-linejoin:round;stroke-dasharray:10.8283,10.8283;stroke-dashoffset:0;stroke-opacity:.229798;paint-order:markers fill stroke;filter:url(#filter3648)"><tspan id="tspan27296" x="91.217" y="355.152">IPN</tspan></text></g></g></g></svg>